<svg width="22" height="22" viewBox="0 0 22 22" fill="none" xmlns="http://www.w3.org/2000/svg">
<path d="M18.2731 3.56797C16.2702 1.61797 13.6194 0.5 11 0.5C8.38062 0.5 5.72984 1.61797 3.72687 3.56797C1.64609 5.59391 0.5 8.1875 0.5 11C0.5 13.8125 1.75812 16.5542 2.62906 18.1367C3.5 19.7192 4.67188 21.5 5.75 21.5C7.25 21.5 10.25 20 10.25 20L5 10.25L2.44906 11.7373C2.41767 11.444 2.40202 11.1492 2.40219 10.8542C2.40219 8.5775 3.30781 6.44328 5.03422 4.76047C6.69875 3.14094 8.84375 2.28125 11 2.28125C13.1562 2.28125 15.2998 3.14094 16.9658 4.76234C18.6922 6.44328 19.5973 8.5775 19.5973 10.8561C19.5975 11.1508 19.5819 11.4453 19.5505 11.7383L17 10.25L11.75 20C11.75 20 14.75 21.5 16.25 21.5C17.3281 21.5 18.5 19.7188 19.3709 18.1367C20.2419 16.5547 21.5 13.8125 21.5 11C21.5 8.1875 20.3539 5.59391 18.2731 3.56797Z" fill="#21272A"/>
</svg>
