<svg width="20" height="28" viewBox="0 0 20 28" fill="none" xmlns="http://www.w3.org/2000/svg">
<path d="M11.8436 27.1442L19.689 16.1259C19.8863 15.8533 19.993 15.5412 19.9977 15.2221C20.0025 14.9031 19.9052 14.5888 19.716 14.3122C19.508 14.012 19.2091 13.7634 18.8498 13.5917C18.4904 13.4199 18.0834 13.3312 17.67 13.3344L12.1818 13.3344L19.691 2.79156C19.8884 2.51898 19.9951 2.20686 19.9998 1.88781C20.0046 1.56876 19.9073 1.25449 19.7181 0.977835C19.5101 0.677652 19.2112 0.429074 18.8519 0.257349C18.4925 0.0856227 18.0855 -0.00313474 17.6721 9.02234e-05L2.32861 8.95527e-05C1.9151 -0.00323879 1.50792 0.0854695 1.14843 0.2572C0.788948 0.428931 0.489971 0.677564 0.281881 0.977835C0.0926977 1.25449 -0.00459485 1.56876 0.000168157 1.88781C0.00493116 2.20686 0.111576 2.51898 0.308959 2.79156L7.82171 13.3344L2.33138 13.3344C1.91741 13.3307 1.50965 13.4192 1.14964 13.5909C0.78962 13.7627 0.490204 14.0115 0.281881 14.3122C0.0926971 14.5888 -0.00459543 14.9031 0.000167574 15.2221C0.00493058 15.5412 0.111575 15.8533 0.308958 16.1259L8.15427 27.1442C8.34954 27.4061 8.62082 27.6221 8.94264 27.7718C9.26445 27.9215 9.62626 28 9.9941 28C10.3619 28 10.7237 27.9215 11.0456 27.7718C11.3674 27.6221 11.6387 27.4061 11.8339 27.1442L11.8436 27.1442Z" fill="white"/>
</svg>
