<svg width="26" height="26" viewBox="0 0 26 26" fill="none" xmlns="http://www.w3.org/2000/svg">
<path d="M14.2852 0.5C15.6915 0.50375 16.4052 0.51125 17.0215 0.52875L17.264 0.5375C17.544 0.5475 17.8202 0.56 18.154 0.575C19.484 0.6375 20.3915 0.8475 21.1877 1.15625C22.0127 1.47375 22.7077 1.90375 23.4027 2.5975C24.0386 3.22217 24.5305 3.97809 24.844 4.8125C25.1527 5.60875 25.3627 6.51625 25.4252 7.8475C25.4402 8.18 25.4527 8.45625 25.4627 8.7375L25.4702 8.98C25.489 9.595 25.4965 10.3088 25.499 11.715L25.5002 12.6475V14.285C25.5033 15.1968 25.4937 16.1085 25.4715 17.02L25.464 17.2625C25.454 17.5437 25.4415 17.82 25.4265 18.1525C25.364 19.4837 25.1515 20.39 24.844 21.1875C24.5305 22.0219 24.0386 22.7778 23.4027 23.4025C22.7781 24.0384 22.0221 24.5302 21.1877 24.8438C20.3915 25.1525 19.484 25.3625 18.154 25.425L17.264 25.4625L17.0215 25.47C16.4052 25.4875 15.6915 25.4963 14.2852 25.4988L13.3527 25.5H11.7165C10.8043 25.5032 9.89213 25.4936 8.98022 25.4712L8.73772 25.4638C8.44099 25.4525 8.14431 25.4396 7.84772 25.425C6.51772 25.3625 5.61022 25.1525 4.81272 24.8438C3.97876 24.5301 3.22328 24.0382 2.59897 23.4025C1.96265 22.778 1.47036 22.022 1.15647 21.1875C0.847723 20.3912 0.637723 19.4837 0.575223 18.1525L0.537723 17.2625L0.531473 17.02C0.50843 16.1085 0.498013 15.1968 0.500223 14.285V11.715C0.496763 10.8033 0.50593 9.8915 0.527723 8.98L0.536473 8.7375C0.546473 8.45625 0.558973 8.18 0.573973 7.8475C0.636473 6.51625 0.846473 5.61 1.15522 4.8125C1.46984 3.97775 1.963 3.2218 2.60022 2.5975C3.22416 1.96194 3.97921 1.47009 4.81272 1.15625C5.61022 0.8475 6.51647 0.6375 7.84772 0.575C8.18022 0.56 8.45772 0.5475 8.73772 0.5375L8.98022 0.53C9.89171 0.507791 10.8035 0.498207 11.7152 0.50125L14.2852 0.5ZM13.0002 6.75C11.3426 6.75 9.75291 7.40848 8.58081 8.58058C7.4087 9.75268 6.75022 11.3424 6.75022 13C6.75022 14.6576 7.4087 16.2473 8.58081 17.4194C9.75291 18.5915 11.3426 19.25 13.0002 19.25C14.6578 19.25 16.2475 18.5915 17.4196 17.4194C18.5917 16.2473 19.2502 14.6576 19.2502 13C19.2502 11.3424 18.5917 9.75268 17.4196 8.58058C16.2475 7.40848 14.6578 6.75 13.0002 6.75ZM13.0002 9.25C13.4927 9.24992 13.9803 9.34683 14.4353 9.53521C14.8903 9.72359 15.3038 9.99975 15.6521 10.3479C16.0003 10.6961 16.2766 11.1094 16.4652 11.5644C16.6537 12.0193 16.7508 12.5069 16.7508 12.9994C16.7509 13.4918 16.654 13.9795 16.4656 14.4345C16.2773 14.8895 16.0011 15.3029 15.6529 15.6512C15.3048 15.9995 14.8914 16.2758 14.4365 16.4643C13.9815 16.6528 13.4939 16.7499 13.0015 16.75C12.0069 16.75 11.0531 16.3549 10.3498 15.6517C9.64656 14.9484 9.25147 13.9946 9.25147 13C9.25147 12.0054 9.64656 11.0516 10.3498 10.3483C11.0531 9.64509 12.0069 9.25 13.0015 9.25M19.564 4.875C19.1496 4.875 18.7521 5.03962 18.4591 5.33265C18.1661 5.62567 18.0015 6.0231 18.0015 6.4375C18.0015 6.8519 18.1661 7.24933 18.4591 7.54235C18.7521 7.83538 19.1496 8 19.564 8C19.9784 8 20.3758 7.83538 20.6688 7.54235C20.9619 7.24933 21.1265 6.8519 21.1265 6.4375C21.1265 6.0231 20.9619 5.62567 20.6688 5.33265C20.3758 5.03962 19.9784 4.875 19.564 4.875Z" fill="white"/>
</svg>
