<svg width="25" height="24" viewBox="0 0 25 24" fill="none" xmlns="http://www.w3.org/2000/svg">
<path fill-rule="evenodd" clip-rule="evenodd" d="M18.5 3C18.8105 3 19.1167 3.06946 19.3944 3.20289C19.6721 3.33631 19.9137 3.53004 20.1 3.76871L22.788 7.21255C22.9226 7.38258 22.9944 7.59085 22.992 7.80446H23V8.76535C23.0001 9.7016 22.6445 10.6057 22 11.3079V18.3743C22 18.884 21.7893 19.3728 21.4142 19.7332C21.0391 20.0936 20.5304 20.2961 20 20.2961H6C5.46957 20.2961 4.96086 20.0936 4.58579 19.7332C4.21071 19.3728 4 18.884 4 18.3743V11.3079C3.35552 10.6057 2.99994 9.7016 3 8.76535V7.80446H3.008C3.00564 7.59085 3.07742 7.38258 3.212 7.21255L5.9 3.76871C6.08629 3.53004 6.32786 3.33631 6.60557 3.20289C6.88328 3.06946 7.18951 3 7.5 3H18.5ZM21 8.76535H17C16.9977 9.26404 17.1972 9.74406 17.5564 10.104C17.9156 10.464 18.4063 10.6757 18.9249 10.6944C19.4436 10.7131 19.9494 10.5374 20.3357 10.2043C20.722 9.87123 20.9584 9.40693 20.995 8.90948L21 8.76535ZM15 8.76535H11C10.9977 9.26404 11.1972 9.74406 11.5564 10.104C11.9156 10.464 12.4063 10.6757 12.9249 10.6944C13.4436 10.7131 13.9494 10.5374 14.3357 10.2043C14.722 9.87123 14.9584 9.40693 14.995 8.90948L15 8.76535ZM9 8.76535H5C4.99768 9.26404 5.19719 9.74406 5.55638 10.104C5.91557 10.464 6.40632 10.6757 6.92494 10.6944C7.44356 10.7131 7.94945 10.5374 8.33572 10.2043C8.72199 9.87123 8.9584 9.40693 8.995 8.90948L9 8.76535Z" fill="white"/>
</svg>
