<svg width="31" height="30" viewBox="0 0 31 30" fill="none" xmlns="http://www.w3.org/2000/svg">
<path d="M17.028 5C18.153 5.00285 18.7239 5.00855 19.2169 5.02185L19.4109 5.0285C19.6349 5.0361 19.8559 5.0456 20.1229 5.057C21.1868 5.1045 21.9128 5.26409 22.5497 5.49874C23.2097 5.74003 23.7657 6.06682 24.3216 6.59406C24.8303 7.0688 25.2238 7.64328 25.4746 8.27742C25.7216 8.88256 25.8896 9.57224 25.9396 10.584C25.9516 10.8367 25.9616 11.0466 25.9696 11.2603L25.9756 11.4446C25.9906 11.912 25.9966 12.4545 25.9986 13.5232L25.9996 14.2319V15.4763C26.002 16.1693 25.9943 16.8622 25.9766 17.5549L25.9706 17.7392C25.9626 17.9529 25.9526 18.1629 25.9406 18.4156C25.8906 19.4273 25.7206 20.116 25.4746 20.7221C25.2238 21.3563 24.8303 21.9307 24.3216 22.4055C23.8219 22.8887 23.2172 23.2625 22.5497 23.5008C21.9128 23.7354 21.1868 23.895 20.1229 23.9425L19.4109 23.971L19.2169 23.9767C18.7239 23.99 18.153 23.9967 17.028 23.9986L16.282 23.9995H14.9731C14.2434 24.002 13.5137 23.9947 12.7842 23.9777L12.5902 23.972C12.3529 23.9634 12.1155 23.9536 11.8783 23.9425C10.8143 23.895 10.0884 23.7354 9.45039 23.5008C8.78326 23.2624 8.1789 22.8886 7.67948 22.4055C7.17045 21.9308 6.77664 21.3563 6.52554 20.7221C6.27855 20.117 6.11056 19.4273 6.06057 18.4156L6.03057 17.7392L6.02557 17.5549C6.00713 16.8622 5.9988 16.1693 6.00057 15.4763V13.5232C5.9978 12.8303 6.00513 12.1374 6.02257 11.4446L6.02957 11.2603C6.03757 11.0466 6.04757 10.8367 6.05957 10.584C6.10956 9.57224 6.27755 8.88351 6.52454 8.27742C6.77622 7.64302 7.17073 7.06851 7.68048 6.59406C8.17961 6.11104 8.78362 5.73725 9.45039 5.49874C10.0884 5.26409 10.8133 5.1045 11.8783 5.057C12.1443 5.0456 12.3662 5.0361 12.5902 5.0285L12.7842 5.0228C13.5134 5.00592 14.2427 4.99864 14.9721 5.00095L17.028 5ZM16.0001 9.74988C14.674 9.74988 13.4023 10.2503 12.4647 11.1411C11.5271 12.0319 11.0003 13.24 11.0003 14.4998C11.0003 15.7595 11.5271 16.9677 12.4647 17.8584C13.4023 18.7492 14.674 19.2497 16.0001 19.2497C17.3261 19.2497 18.5978 18.7492 19.5354 17.8584C20.4731 16.9677 20.9998 15.7595 20.9998 14.4998C20.9998 13.24 20.4731 12.0319 19.5354 11.1411C18.5978 10.2503 17.3261 9.74988 16.0001 9.74988ZM16.0001 11.6498C16.394 11.6498 16.7841 11.7234 17.1481 11.8666C17.5121 12.0098 17.8428 12.2196 18.1214 12.4842C18.4 12.7488 18.6211 13.063 18.7719 13.4087C18.9227 13.7545 19.0003 14.125 19.0004 14.4993C19.0005 14.8736 18.923 15.2442 18.7723 15.59C18.6216 15.9357 18.4006 16.25 18.1221 16.5146C17.8436 16.7793 17.513 16.9893 17.149 17.1326C16.7851 17.2759 16.395 17.3496 16.0011 17.3497C15.2055 17.3497 14.4424 17.0494 13.8799 16.515C13.3173 15.9805 13.0012 15.2556 13.0012 14.4998C13.0012 13.7439 13.3173 13.019 13.8799 12.4846C14.4424 11.9501 15.2055 11.6498 16.0011 11.6498M21.2508 8.32492C20.9193 8.32492 20.6014 8.45003 20.367 8.67272C20.1326 8.89542 20.0009 9.19745 20.0009 9.51239C20.0009 9.82733 20.1326 10.1294 20.367 10.3521C20.6014 10.5748 20.9193 10.6999 21.2508 10.6999C21.5823 10.6999 21.9002 10.5748 22.1346 10.3521C22.369 10.1294 22.5007 9.82733 22.5007 9.51239C22.5007 9.19745 22.369 8.89542 22.1346 8.67272C21.9002 8.45003 21.5823 8.32492 21.2508 8.32492Z" fill="white"/>
</svg>
