<svg width="31" height="30" viewBox="0 0 31 30" fill="none" xmlns="http://www.w3.org/2000/svg">
<path d="M8.85714 5C7.28125 5 6 6.28125 6 7.85714V22.1429C6 23.7187 7.28125 25 8.85714 25H23.1429C24.7188 25 26 23.7187 26 22.1429V7.85714C26 6.28125 24.7188 5 23.1429 5H8.85714ZM22.1205 8.75L17.4866 14.0446L22.9375 21.25H18.6696L15.3304 16.8795L11.5045 21.25H9.38393L14.3393 15.5848L9.11161 8.75H13.4866L16.5089 12.7455L20 8.75H22.1205ZM20.433 19.9821L12.8482 9.95089H11.5848L19.2545 19.9821H20.4286H20.433Z" fill="white"/>
</svg>
