<svg width="20" height="21" viewBox="0 0 20 21" fill="none" xmlns="http://www.w3.org/2000/svg">
<g clip-path="url(#clip0_578_759)">
<path d="M17.5 7.67969V2.875C17.5007 2.64528 17.4561 2.41768 17.3686 2.20527C17.2811 1.99285 17.1526 1.7998 16.9903 1.6372C16.828 1.4746 16.6352 1.34565 16.423 1.25775C16.2107 1.16986 15.9832 1.12474 15.7535 1.125H10.9516C10.6367 1.12565 10.3348 1.25043 10.1113 1.47227L0.511329 11.0695C0.183913 11.398 6.10352e-05 11.8429 6.10352e-05 12.3066C6.10352e-05 12.7704 0.183913 13.2153 0.511329 13.5438L5.08164 18.1141C5.40999 18.4416 5.85481 18.6255 6.31856 18.6255C6.7823 18.6255 7.22712 18.4416 7.55547 18.1141L17.1527 8.51992C17.3746 8.29652 17.4994 7.99457 17.5 7.67969ZM13.75 6.125C13.5028 6.125 13.2611 6.05169 13.0555 5.91434C12.85 5.77699 12.6898 5.58176 12.5952 5.35336C12.5005 5.12495 12.4758 4.87361 12.524 4.63114C12.5723 4.38866 12.6913 4.16593 12.8661 3.99112C13.0409 3.8163 13.2637 3.69725 13.5061 3.64902C13.7486 3.60079 13.9999 3.62554 14.2284 3.72015C14.4568 3.81476 14.652 3.97498 14.7893 4.18054C14.9267 4.3861 15 4.62777 15 4.875C15 5.20652 14.8683 5.52446 14.6339 5.75888C14.3995 5.9933 14.0815 6.125 13.75 6.125Z" fill="#333333"/>
<path d="M19.375 3C19.2092 3 19.0503 3.06585 18.9331 3.18306C18.8158 3.30027 18.75 3.45924 18.75 3.625V8.60039L8.54257 18.8082C8.48209 18.8657 8.43373 18.9346 8.40033 19.0111C8.36693 19.0875 8.34917 19.1699 8.3481 19.2533C8.34704 19.3367 8.36268 19.4195 8.39411 19.4968C8.42554 19.5741 8.47212 19.6443 8.53111 19.7033C8.5901 19.7622 8.6603 19.8088 8.73758 19.8403C8.81485 19.8717 8.89764 19.8873 8.98105 19.8863C9.06447 19.8852 9.14683 19.8674 9.22327 19.834C9.29972 19.8006 9.36871 19.7523 9.42616 19.6918L19.6605 9.45742C19.7694 9.34805 19.8555 9.21815 19.9137 9.07525C19.972 8.93236 20.0013 8.77931 20 8.625V3.625C20 3.45924 19.9341 3.30027 19.8169 3.18306C19.6997 3.06585 19.5408 3 19.375 3Z" fill="#333333"/>
</g>
<defs>
<clipPath id="clip0_578_759">
<rect width="20" height="20" fill="white" transform="translate(0 0.5)"/>
</clipPath>
</defs>
</svg>
