<svg width="21" height="19" viewBox="0 0 21 19" fill="none" xmlns="http://www.w3.org/2000/svg">
<path fill-rule="evenodd" clip-rule="evenodd" d="M16.0488 0.908203C16.3593 0.908203 16.6655 0.980493 16.9433 1.11935C17.221 1.2582 17.4625 1.45981 17.6488 1.7082L20.3368 5.2922C20.4714 5.46915 20.5432 5.6859 20.5408 5.9082H20.5488V6.9082C20.5489 7.88256 20.1933 8.82344 19.5488 9.5542V16.9082C19.5488 17.4386 19.3381 17.9473 18.963 18.3224C18.588 18.6975 18.0793 18.9082 17.5488 18.9082H3.54883C3.0184 18.9082 2.50969 18.6975 2.13461 18.3224C1.75954 17.9473 1.54883 17.4386 1.54883 16.9082V9.5542C0.904352 8.82344 0.548768 7.88256 0.548828 6.9082V5.9082H0.556828C0.554465 5.6859 0.626246 5.46915 0.760828 5.2922L3.44883 1.7082C3.63512 1.45981 3.87669 1.2582 4.1544 1.11935C4.43211 0.980493 4.73834 0.908203 5.04883 0.908203H16.0488ZM18.5488 6.9082H14.5488C14.5465 7.42719 14.746 7.92675 15.1052 8.30136C15.4644 8.67596 15.9551 8.89627 16.4738 8.91574C16.9924 8.93522 17.4983 8.75233 17.8845 8.40571C18.2708 8.05909 18.5072 7.5759 18.5438 7.0582L18.5488 6.9082ZM12.5488 6.9082H8.54883C8.54651 7.42719 8.74601 7.92675 9.10521 8.30136C9.4644 8.67596 9.95514 8.89627 10.4738 8.91574C10.9924 8.93522 11.4983 8.75233 11.8845 8.40571C12.2708 8.05909 12.5072 7.5759 12.5438 7.0582L12.5488 6.9082ZM6.54883 6.9082H2.54883C2.54651 7.42719 2.74601 7.92675 3.10521 8.30136C3.4644 8.67596 3.95514 8.89627 4.47377 8.91574C4.99239 8.93522 5.49827 8.75233 5.88455 8.40571C6.27082 8.05909 6.50723 7.5759 6.54383 7.0582L6.54883 6.9082Z" fill="#008484"/>
</svg>
