<svg width="21" height="21" viewBox="0 0 21 21" fill="none" xmlns="http://www.w3.org/2000/svg">
<path fill-rule="evenodd" clip-rule="evenodd" d="M16.3945 0C16.705 0 17.0112 0.0722902 17.289 0.211146C17.5667 0.350001 17.8082 0.551608 17.9945 0.8L20.6825 4.384C20.8171 4.56095 20.8889 4.7777 20.8865 5H20.8945V6C20.8946 6.97436 20.539 7.91523 19.8945 8.646V16C19.8945 16.5304 19.6838 17.0391 19.3087 17.4142C18.9337 17.7893 18.425 18 17.8945 18H3.89453C3.3641 18 2.85539 17.7893 2.48032 17.4142C2.10524 17.0391 1.89453 16.5304 1.89453 16V8.646C1.25005 7.91523 0.894471 6.97436 0.894531 6V5H0.902531C0.900168 4.7777 0.971949 4.56095 1.10653 4.384L3.79453 0.8C3.98083 0.551608 4.22239 0.350001 4.5001 0.211146C4.77781 0.0722902 5.08404 0 5.39453 0H16.3945ZM18.8945 6H14.8945C14.8922 6.51898 15.0917 7.01855 15.4509 7.39315C15.8101 7.76776 16.3008 7.98807 16.8195 8.00754C17.3381 8.02701 17.844 7.84412 18.2302 7.49751C18.6165 7.15089 18.8529 6.6677 18.8895 6.15L18.8945 6ZM12.8945 6H8.89453C8.89221 6.51898 9.09172 7.01855 9.45091 7.39315C9.8101 7.76776 10.3008 7.98807 10.8195 8.00754C11.3381 8.02701 11.844 7.84412 12.2302 7.49751C12.6165 7.15089 12.8529 6.6677 12.8895 6.15L12.8945 6ZM6.89453 6H2.89453C2.89221 6.51898 3.09172 7.01855 3.45091 7.39315C3.8101 7.76776 4.30085 7.98807 4.81947 8.00754C5.33809 8.02701 5.84398 7.84412 6.23025 7.49751C6.61652 7.15089 6.85293 6.6677 6.88953 6.15L6.89453 6Z" fill="white"/>
</svg>
