<svg width="20" height="19" viewBox="0 0 20 19" fill="none" xmlns="http://www.w3.org/2000/svg">
<path fill-rule="evenodd" clip-rule="evenodd" d="M15.5 0.5C15.8105 0.5 16.1167 0.57229 16.3944 0.711146C16.6721 0.850001 16.9137 1.05161 17.1 1.3L19.788 4.884C19.9226 5.06095 19.9944 5.2777 19.992 5.5H20V6.5C20.0001 7.47436 19.6445 8.41523 19 9.146V16.5C19 17.0304 18.7893 17.5391 18.4142 17.9142C18.0391 18.2893 17.5304 18.5 17 18.5H3C2.46957 18.5 1.96086 18.2893 1.58579 17.9142C1.21071 17.5391 1 17.0304 1 16.5V9.146C0.355524 8.41523 -6.05681e-05 7.47436 7.7383e-09 6.5V5.5H0.0079999C0.00563691 5.2777 0.0774178 5.06095 0.212 4.884L2.9 1.3C3.08629 1.05161 3.32786 0.850001 3.60557 0.711146C3.88328 0.57229 4.18951 0.5 4.5 0.5H15.5ZM18 6.5H14C13.9977 7.01898 14.1972 7.51855 14.5564 7.89315C14.9156 8.26776 15.4063 8.48807 15.9249 8.50754C16.4436 8.52701 16.9494 8.34412 17.3357 7.99751C17.722 7.65089 17.9584 7.1677 17.995 6.65L18 6.5ZM12 6.5H8C7.99768 7.01898 8.19719 7.51855 8.55638 7.89315C8.91557 8.26776 9.40632 8.48807 9.92494 8.50754C10.4436 8.52701 10.9494 8.34412 11.3357 7.99751C11.722 7.65089 11.9584 7.1677 11.995 6.65L12 6.5ZM6 6.5H2C1.99768 7.01898 2.19719 7.51855 2.55638 7.89315C2.91557 8.26776 3.40632 8.48807 3.92494 8.50754C4.44356 8.52701 4.94945 8.34412 5.33572 7.99751C5.72199 7.65089 5.9584 7.1677 5.995 6.65L6 6.5Z" fill="#222222"/>
</svg>
