<svg width="25" height="26" viewBox="0 0 25 26" fill="none" xmlns="http://www.w3.org/2000/svg">
<path d="M3.57143 0.75C1.60156 0.75 0 2.31953 0 4.25V21.75C0 23.6805 1.60156 25.25 3.57143 25.25H21.4286C23.3984 25.25 25 23.6805 25 21.75V4.25C25 2.31953 23.3984 0.75 21.4286 0.75H3.57143ZM20.1507 5.34375L14.3583 11.8297L21.1719 20.6562H15.8371L11.6629 15.3023L6.88058 20.6562H4.22991L10.4241 13.7164L3.88951 5.34375H9.35826L13.1362 10.2383L17.5 5.34375H20.1507ZM18.0413 19.1031L8.56027 6.81484H6.98103L16.5681 19.1031H18.0357H18.0413Z" fill="white"/>
</svg>
