<svg width="25" height="25" viewBox="0 0 25 25" fill="none" xmlns="http://www.w3.org/2000/svg">
<path d="M6.09391 17.8122C6.97933 17.1351 7.96891 16.6014 9.06266 16.2111C10.1564 15.8209 11.3022 15.6254 12.5002 15.6247C13.6981 15.624 14.8439 15.8195 15.9377 16.2111C17.0314 16.6028 18.021 17.1365 18.9064 17.8122C19.5141 17.1004 19.9873 16.2931 20.3262 15.3903C20.6651 14.4875 20.8342 13.524 20.8335 12.4997C20.8335 10.1906 20.022 8.22433 18.3991 6.60072C16.7762 4.9771 14.8099 4.16565 12.5002 4.16634C10.1904 4.16704 8.22412 4.97884 6.60121 6.60176C4.97829 8.22467 4.16683 10.1906 4.16683 12.4997C4.16683 13.524 4.33627 14.4875 4.67516 15.3903C5.01405 16.2931 5.48697 17.1004 6.09391 17.8122ZM12.5002 13.5413C11.4759 13.5413 10.612 13.19 9.9085 12.4872C9.20503 11.7844 8.85364 10.9205 8.85433 9.89551C8.85503 8.87051 9.20676 8.00662 9.90954 7.30384C10.6123 6.60106 11.4759 6.24967 12.5002 6.24967C13.5245 6.24967 14.3884 6.60141 15.0918 7.30488C15.7953 8.00835 16.1467 8.8719 16.146 9.89551C16.1453 10.9191 15.7939 11.783 15.0918 12.4872C14.3897 13.1913 13.5259 13.5427 12.5002 13.5413ZM12.5002 22.9163C11.0592 22.9163 9.70503 22.6427 8.43766 22.0955C7.1703 21.5483 6.06787 20.8063 5.13037 19.8695C4.19287 18.9327 3.45086 17.8302 2.90433 16.5622C2.3578 15.2941 2.08419 13.94 2.0835 12.4997C2.0828 11.0594 2.35641 9.70523 2.90433 8.43717C3.45225 7.16912 4.19426 6.06669 5.13037 5.12988C6.06648 4.19308 7.16891 3.45106 8.43766 2.90384C9.70641 2.35662 11.0606 2.08301 12.5002 2.08301C13.9397 2.08301 15.2939 2.35662 16.5627 2.90384C17.8314 3.45106 18.9338 4.19308 19.87 5.12988C20.8061 6.06669 21.5484 7.16912 22.097 8.43717C22.6456 9.70523 22.9189 11.0594 22.9168 12.4997C22.9147 13.94 22.6411 15.2941 22.096 16.5622C21.5509 17.8302 20.8088 18.9327 19.87 19.8695C18.9311 20.8063 17.8286 21.5486 16.5627 22.0965C15.2967 22.6445 13.9425 22.9177 12.5002 22.9163Z" fill="#222222"/>
</svg>
