<svg width="28" height="28" viewBox="0 0 28 28" fill="none" xmlns="http://www.w3.org/2000/svg">
<g clip-path="url(#clip0_1372_1624)">
<path d="M9.33301 10.2663C9.33301 9.0286 9.82467 7.84161 10.6998 6.96644C11.575 6.09127 12.762 5.59961 13.9997 5.59961C15.2374 5.59961 16.4243 6.09127 17.2995 6.96644C18.1747 7.84161 18.6663 9.0286 18.6663 10.2663C18.6663 11.504 18.1747 12.6909 17.2995 13.5661C16.4243 14.4413 15.2374 14.9329 13.9997 14.9329C12.762 14.9329 11.575 14.4413 10.6998 13.5661C9.82467 12.6909 9.33301 11.504 9.33301 10.2663Z" fill="#222222"/>
<path fill-rule="evenodd" clip-rule="evenodd" d="M14 0C10.287 0 6.72601 1.475 4.1005 4.1005C1.475 6.72601 0 10.287 0 14C0 17.713 1.475 21.274 4.1005 23.8995C6.72601 26.525 10.287 28 14 28C17.713 28 21.274 26.525 23.8995 23.8995C26.525 21.274 28 17.713 28 14C28 10.287 26.525 6.72601 23.8995 4.1005C21.274 1.475 17.713 0 14 0ZM1.86667 14C1.8667 11.9927 2.36472 10.0168 3.31612 8.24933C4.26751 6.48184 5.64254 4.978 7.31801 3.87257C8.99347 2.76713 10.917 2.09464 12.9163 1.91535C14.9155 1.73606 16.928 2.05558 18.7734 2.84527C20.6188 3.63496 22.2395 4.87015 23.4902 6.44016C24.7409 8.01017 25.5825 9.86595 25.9397 11.8412C26.2969 13.8164 26.1584 15.8494 25.5367 17.758C24.9151 19.6666 23.8296 21.3911 22.3776 22.7771C22.2382 21.1463 21.4919 19.6273 20.2862 18.5205C19.0805 17.4136 17.5033 16.7997 15.8667 16.8H12.1333C10.4967 16.7997 8.91946 17.4136 7.71378 18.5205C6.50809 19.6273 5.76175 21.1463 5.6224 22.7771C4.43366 21.6454 3.48766 20.2837 2.84199 18.7747C2.19631 17.2658 1.86447 15.6413 1.86667 14Z" fill="#222222"/>
</g>
<defs>
<clipPath id="clip0_1372_1624">
<rect width="28" height="28" fill="white"/>
</clipPath>
</defs>
</svg>
