<svg width="28" height="28" viewBox="0 0 28 28" fill="none" xmlns="http://www.w3.org/2000/svg">
<path fill-rule="evenodd" clip-rule="evenodd" d="M13.9993 0.666748C15.7503 0.66674 17.4841 1.01161 19.1018 1.68167C20.7195 2.35173 22.1893 3.33385 23.4274 4.57196C24.6656 5.81008 25.6477 7.27993 26.3178 8.89761C26.9878 10.5153 27.3327 12.2491 27.3327 14.0001C27.3327 21.3639 21.3631 27.3334 13.9993 27.3334C6.63558 27.3334 0.666016 21.3639 0.666016 14.0001C0.666016 6.63631 6.63558 0.666748 13.9993 0.666748ZM15.3327 15.3334H12.666C9.36508 15.3334 6.53114 17.3326 5.30883 20.1864C7.24283 22.8984 10.4146 24.6668 13.9993 24.6668C17.5841 24.6668 20.7558 22.8984 22.6899 20.1863C21.4676 17.3326 18.6336 15.3334 15.3327 15.3334ZM13.9993 4.66675C11.7902 4.66675 9.99933 6.45762 9.99933 8.66675C9.99933 10.8759 11.7902 12.6668 13.9993 12.6668C16.2085 12.6668 17.9993 10.8759 17.9993 8.66675C17.9993 6.45762 16.2085 4.66675 13.9993 4.66675Z" fill="#222222"/>
</svg>
