<svg width="25" height="25" viewBox="0 0 25 25" fill="none" xmlns="http://www.w3.org/2000/svg">
<path fill-rule="evenodd" clip-rule="evenodd" d="M18.1458 2C18.4693 2 18.7882 2.08367 19.0775 2.24438C19.3668 2.40509 19.6184 2.63843 19.8125 2.92593L22.6125 7.07407C22.7527 7.27888 22.8275 7.52974 22.825 7.78704H22.8333V8.94444C22.8334 10.0722 22.463 11.1611 21.7917 12.0069V20.5185C21.7917 21.1324 21.5722 21.7212 21.1815 22.1553C20.7908 22.5895 20.2609 22.8333 19.7083 22.8333H5.125C4.57247 22.8333 4.04256 22.5895 3.65186 22.1553C3.26116 21.7212 3.04167 21.1324 3.04167 20.5185V12.0069C2.37034 11.1611 1.99994 10.0722 2 8.94444V7.78704H2.00833C2.00587 7.52974 2.08064 7.27888 2.22083 7.07407L5.02083 2.92593C5.21489 2.63843 5.46652 2.40509 5.75581 2.24438C6.04509 2.08367 6.36407 2 6.6875 2H18.1458ZM20.75 8.94444H16.5833C16.5809 9.54512 16.7887 10.1233 17.1629 10.5569C17.5371 10.9905 18.0482 11.2455 18.5885 11.268C19.1287 11.2905 19.6557 11.0788 20.058 10.6777C20.4604 10.2765 20.7067 9.71724 20.7448 9.11806L20.75 8.94444ZM14.5 8.94444H10.3333C10.3309 9.54512 10.5387 10.1233 10.9129 10.5569C11.2871 10.9905 11.7982 11.2455 12.3385 11.268C12.8787 11.2905 13.4057 11.0788 13.808 10.6777C14.2104 10.2765 14.4567 9.71724 14.4948 9.11806L14.5 8.94444ZM8.25 8.94444H4.08333C4.08091 9.54512 4.28874 10.1233 4.66289 10.5569C5.03705 10.9905 5.54825 11.2455 6.08848 11.268C6.62871 11.2905 7.15567 11.0788 7.55804 10.6777C7.96041 10.2765 8.20667 9.71724 8.24479 9.11806L8.25 8.94444Z" fill="#222222"/>
</svg>
