<svg width="26" height="27" viewBox="0 0 26 27" fill="none" xmlns="http://www.w3.org/2000/svg">
<path fill-rule="evenodd" clip-rule="evenodd" d="M19.875 0.75C20.2631 0.75 20.6459 0.840363 20.993 1.01393C21.3402 1.1875 21.6421 1.43951 21.875 1.75L25.235 6.23C25.4032 6.45119 25.493 6.72212 25.49 7H25.5V8.25C25.5001 9.46795 25.0556 10.644 24.25 11.5575V20.75C24.25 21.413 23.9866 22.0489 23.5178 22.5178C23.0489 22.9866 22.413 23.25 21.75 23.25H4.25C3.58696 23.25 2.95107 22.9866 2.48223 22.5178C2.01339 22.0489 1.75 21.413 1.75 20.75V11.5575C0.944405 10.644 0.499924 9.46795 0.5 8.25V7H0.51C0.507046 6.72212 0.596772 6.45119 0.765 6.23L4.125 1.75C4.35787 1.43951 4.65983 1.1875 5.00697 1.01393C5.3541 0.840363 5.73689 0.75 6.125 0.75H19.875ZM23 8.25H18C17.9971 8.89873 18.2465 9.52318 18.6955 9.99144C19.1445 10.4597 19.7579 10.7351 20.4062 10.7594C21.0545 10.7838 21.6868 10.5552 22.1696 10.1219C22.6525 9.68861 22.948 9.08462 22.9938 8.4375L23 8.25ZM15.5 8.25H10.5C10.4971 8.89873 10.7465 9.52318 11.1955 9.99144C11.6445 10.4597 12.2579 10.7351 12.9062 10.7594C13.5545 10.7838 14.1868 10.5552 14.6696 10.1219C15.1525 9.68861 15.448 9.08462 15.4937 8.4375L15.5 8.25ZM8 8.25H3C2.9971 8.89873 3.24648 9.52318 3.69547 9.99144C4.14446 10.4597 4.7579 10.7351 5.40617 10.7594C6.05445 10.7838 6.68681 10.5552 7.16965 10.1219C7.65249 9.68861 7.948 9.08462 7.99375 8.4375L8 8.25Z" fill="#222222"/>
</svg>
